<?xml version="1.0" encoding="UTF-8"?>
<svg id="_圖層_1" data-name="圖層 1" xmlns="http://www.w3.org/2000/svg" viewBox="0 0 310.13 103.38">
  <defs>
    <style>
      .cls-1 {
        fill: #231815;
      }
    </style>
  </defs>
  <g>
    <polygon points="42.86 38.19 42.83 70.55 19.07 85.41 19.08 13.2 55.42 31.93 42.86 38.19"/>
    <polygon points="68.03 70.59 67.99 38.25 55.53 31.9 91.79 13.22 91.78 85.4 68.03 70.59"/>
  </g>
  <g>
    <path class="cls-1" d="M117.3,52.95v-25.91l17.69,18.51v-16.86h3.66v25.74l-17.69-18.46v16.98h-3.66Z"/>
    <g>
      <path class="cls-1" d="M165.89,32.13h-9.73v5.83h9.44v3.44h-9.44v8.11h9.73v3.44h-13.39v-24.26h13.39v3.44Z"/>
      <path class="cls-1" d="M183.82,40.27l-6.68-11.58h4.16l4.64,8.22,4.87-8.22h4.19l-6.99,11.58,7.34,12.68h-4.1l-5.37-9.29-5.53,9.29h-4.15l7.62-12.68Z"/>
      <path class="cls-1" d="M204.87,40.71c0-3.41,1.25-6.35,3.75-8.8,2.49-2.45,5.49-3.68,8.99-3.68s6.42,1.24,8.89,3.71c2.48,2.47,3.72,5.44,3.72,8.91s-1.25,6.45-3.74,8.88c-2.5,2.44-5.53,3.66-9.07,3.66-3.13,0-5.94-1.08-8.44-3.25-2.74-2.4-4.12-5.54-4.12-9.43ZM208.56,40.76c0,2.68.9,4.89,2.7,6.61,1.79,1.73,3.86,2.59,6.21,2.59,2.55,0,4.69-.88,6.44-2.64,1.75-1.78,2.62-3.95,2.62-6.5s-.87-4.76-2.59-6.5c-1.72-1.76-3.85-2.64-6.38-2.64s-4.66.88-6.39,2.64c-1.74,1.74-2.61,3.89-2.61,6.44Z"/>
      <path class="cls-1" d="M251.09,42.61l7.51,10.34h-4.48l-6.93-9.93h-.66v9.93h-3.66v-24.26h4.29c3.21,0,5.52.6,6.94,1.81,1.57,1.34,2.36,3.11,2.36,5.31,0,1.72-.49,3.2-1.48,4.43-.98,1.24-2.28,2.03-3.9,2.37ZM246.54,39.83h1.16c3.47,0,5.2-1.33,5.2-3.97,0-2.48-1.69-3.72-5.06-3.72h-1.3v7.7Z"/>
      <g>
        <path class="cls-1" d="M118.04,64.2h3.11c.85,0,1.45.25,1.81.75.21.3.32.64.32,1.03,0,.45-.13.83-.39,1.12-.13.15-.33.29-.58.42.37.14.64.3.83.47.32.31.48.75.48,1.3,0,.46-.15.88-.44,1.26-.44.56-1.13.84-2.08.84h-3.06v-7.19ZM120.78,67.24c.42,0,.74-.06.97-.17.36-.18.54-.5.54-.97s-.19-.79-.58-.95c-.22-.09-.54-.14-.97-.14h-1.75v2.23h1.79ZM121.11,70.55c.6,0,1.03-.17,1.29-.52.16-.22.24-.48.24-.79,0-.52-.24-.88-.71-1.07-.25-.1-.58-.15-.99-.15h-1.95v2.53h2.12Z"/>
        <path class="cls-1" d="M127.51,66.15v3.48c0,.27.04.49.12.66.15.31.44.47.85.47.6,0,1-.27,1.22-.82.12-.29.18-.7.18-1.21v-2.57h.88v5.24h-.83v-.77c-.1.2-.24.37-.41.5-.33.27-.73.41-1.2.41-.73,0-1.23-.25-1.5-.75-.14-.27-.22-.62-.22-1.07v-3.56h.9Z"/>
        <path class="cls-1" d="M134.2,64.2h.9v1h-.9v-1ZM134.2,66.17h.9v5.21h-.9v-5.21Z"/>
        <path class="cls-1" d="M138.46,64.2h.88v7.19h-.88v-7.19Z"/>
        <path class="cls-1" d="M145.54,66.31c.16.1.33.27.53.51v-2.65h.85v7.21h-.79v-.73c-.21.32-.45.56-.73.7-.28.14-.6.21-.96.21-.58,0-1.08-.25-1.51-.74-.43-.49-.64-1.14-.64-1.96,0-.76.19-1.42.58-1.98s.94-.84,1.66-.84c.4,0,.73.08,1,.25ZM143.58,70.24c.24.38.62.57,1.14.57.41,0,.74-.18,1-.53s.39-.85.39-1.51-.13-1.15-.4-1.47c-.27-.32-.6-.48-1-.48-.44,0-.8.17-1.07.51-.27.34-.41.84-.41,1.5,0,.56.12,1.03.35,1.41Z"/>
        <path class="cls-1" d="M160.19,64.2v.86h-2.42v6.33h-.98v-6.33h-2.42v-.86h5.83Z"/>
        <path class="cls-1" d="M162.97,64.18h.88v2.68c.21-.26.4-.45.56-.56.28-.19.64-.28,1.06-.28.76,0,1.27.27,1.55.8.15.29.22.69.22,1.21v3.36h-.91v-3.3c0-.38-.05-.67-.15-.85-.16-.29-.46-.43-.9-.43-.37,0-.7.13-.99.38-.3.25-.45.73-.45,1.42v2.78h-.88v-7.21Z"/>
        <path class="cls-1" d="M173.79,66.29c.35.17.61.4.79.68.18.26.29.57.35.92.05.24.08.63.08,1.15h-3.81c.02.53.14.96.37,1.28.23.32.59.48,1.08.48.46,0,.82-.15,1.09-.46.15-.18.26-.38.32-.61h.87c-.02.19-.1.41-.23.64-.13.24-.27.43-.43.58-.27.26-.59.44-.99.53-.21.05-.45.08-.71.08-.65,0-1.2-.24-1.65-.71-.45-.47-.68-1.14-.68-1.99s.23-1.52.68-2.05c.45-.53,1.05-.79,1.78-.79.37,0,.73.09,1.07.26ZM174.1,68.35c-.04-.38-.12-.69-.25-.91-.24-.42-.64-.64-1.2-.64-.4,0-.74.15-1.01.44-.27.29-.42.66-.43,1.11h2.89Z"/>
        <path class="cls-1" d="M183.03,64.2h1.15l3.58,5.81v-5.81h.93v7.19h-1.09l-3.64-5.8v5.8h-.93v-7.19Z"/>
        <path class="cls-1" d="M195.39,66.29c.35.17.61.4.79.68.17.26.29.57.35.92.05.24.08.63.08,1.15h-3.81c.02.53.14.96.37,1.28.23.32.59.48,1.08.48.46,0,.82-.15,1.09-.46.15-.18.26-.38.32-.61h.87c-.02.19-.1.41-.23.64-.13.24-.27.43-.43.58-.27.26-.59.44-.99.53-.21.05-.45.08-.71.08-.65,0-1.2-.24-1.65-.71-.45-.47-.68-1.14-.68-1.99s.23-1.52.68-2.05c.45-.53,1.05-.79,1.78-.79.37,0,.73.09,1.07.26ZM195.7,68.35c-.04-.38-.12-.69-.25-.91-.24-.42-.64-.64-1.2-.64-.4,0-.74.15-1.01.44-.27.29-.42.66-.43,1.11h2.89Z"/>
        <path class="cls-1" d="M199.23,66.15h1.14l1.2,1.84,1.22-1.84,1.07.02-1.77,2.53,1.84,2.69h-1.12l-1.3-1.97-1.26,1.97h-1.12l1.84-2.69-1.75-2.55Z"/>
        <path class="cls-1" d="M206.92,64.68h.89v1.46h.84v.72h-.84v3.42c0,.18.06.3.19.37.07.04.18.05.34.05.04,0,.09,0,.14,0,.05,0,.11,0,.17-.02v.7c-.1.03-.21.05-.32.06s-.23.02-.35.02c-.41,0-.69-.11-.84-.32s-.22-.48-.22-.82v-3.47h-.71v-.72h.71v-1.46Z"/>
        <path class="cls-1" d="M216.53,64.2h5.21v.88h-4.27v2.18h3.94v.83h-3.94v2.44h4.34v.86h-5.29v-7.19Z"/>
        <path class="cls-1" d="M225.03,66.15h.84v.91c.07-.18.24-.39.5-.64s.58-.38.92-.38c.02,0,.04,0,.08,0s.11,0,.2.02v.93c-.05,0-.1-.02-.14-.02s-.09,0-.14,0c-.44,0-.79.14-1.02.43-.24.29-.36.61-.36.99v3.01h-.88v-5.24Z"/>
        <path class="cls-1" d="M233.15,68.22c.2-.03.34-.11.41-.25.04-.08.06-.19.06-.34,0-.3-.11-.52-.32-.66s-.52-.2-.92-.2c-.46,0-.79.12-.98.37-.11.14-.18.34-.21.61h-.82c.02-.65.23-1.1.63-1.35.4-.25.87-.38,1.4-.38.62,0,1.12.12,1.5.35.38.23.57.6.57,1.1v3.02c0,.09.02.16.06.22.04.06.12.08.24.08.04,0,.08,0,.13,0s.1-.01.16-.02v.65c-.14.04-.24.06-.31.07-.07,0-.17.01-.29.01-.3,0-.52-.11-.66-.32-.07-.11-.12-.28-.15-.48-.18.23-.44.44-.77.61s-.71.26-1.11.26c-.49,0-.88-.15-1.19-.44-.31-.29-.46-.66-.46-1.11,0-.49.15-.86.46-1.13.3-.27.7-.43,1.19-.49l1.4-.18ZM231.3,70.59c.19.15.41.22.66.22.31,0,.61-.07.9-.21.49-.24.73-.63.73-1.17v-.71c-.11.07-.25.13-.41.17-.17.05-.34.08-.5.1l-.53.07c-.32.04-.56.11-.72.2-.27.15-.41.4-.41.73,0,.25.09.45.28.6Z"/>
        <path class="cls-1" d="M238.13,70.32h1.02v1.07h-1.02v-1.07Z"/>
      </g>
      <polygon class="cls-1" points="279.52 27.17 267.51 52.95 271.46 52.95 274.16 47.06 279.45 35.37 284.54 47.06 287.09 52.95 291.09 52.95 279.52 27.17"/>
    </g>
  </g>
</svg>
